<svg width="36" height="36" viewBox="0 0 36 36" fill="none" xmlns="http://www.w3.org/2000/svg">
<g clip-path="url(#clip0_72_387)">
<path d="M10.8294 0.934573C11.0158 0.935176 11.2003 0.972577 11.3723 1.04463C11.5442 1.11668 11.7003 1.22197 11.8315 1.35446L23.3008 13.0325C23.9545 13.6964 24.4708 14.4828 24.8201 15.3465C25.1694 16.2102 25.3449 17.1344 25.3365 18.0661C25.3281 18.9977 25.1359 19.9186 24.7711 20.7759C24.4063 21.6332 23.8759 22.4101 23.2103 23.0621L11.5323 34.5314C11.399 34.6623 11.2412 34.7657 11.068 34.8356C10.8948 34.9055 10.7095 34.9406 10.5227 34.9389C10.3359 34.9373 10.1513 34.8988 9.97935 34.8258C9.80742 34.7527 9.65156 34.6465 9.52067 34.5133C9.38978 34.38 9.28642 34.2222 9.21649 34.049C9.14657 33.8758 9.11145 33.6905 9.11313 33.5037C9.11481 33.3169 9.15327 33.1323 9.22631 32.9604C9.29935 32.7884 9.40554 32.6326 9.53882 32.5017L21.2169 21.0324C22.0199 20.2427 22.4767 19.1666 22.4869 18.0404C22.497 16.9142 22.0597 15.83 21.2711 15.026L9.80175 3.3479C9.67016 3.21501 9.56619 3.05738 9.49582 2.88411C9.42546 2.71083 9.3901 2.52534 9.39179 2.33833C9.39348 2.15132 9.43217 1.9665 9.50565 1.79452C9.57913 1.62254 9.68593 1.46681 9.81989 1.33632C9.95345 1.20622 10.1114 1.10376 10.2846 1.03482C10.4578 0.96588 10.643 0.931814 10.8294 0.934573Z" fill="#374957"/>
</g>
<defs>
<clipPath id="clip0_72_387">
<rect width="34" height="34" fill="white" transform="translate(34.8459 35.1526) rotate(-179.483)"/>
</clipPath>
</defs>
</svg>
