<svg width="34" height="34" viewBox="0 0 34 34" fill="none" xmlns="http://www.w3.org/2000/svg">
<g clip-path="url(#clip0_72_384)">
<path d="M24.3241 34C24.1376 34.001 23.9528 33.9653 23.7802 33.8948C23.6076 33.8243 23.4506 33.7204 23.3182 33.5891L11.7441 22.015C11.0844 21.357 10.5611 20.5753 10.204 19.7148C9.8469 18.8542 9.66309 17.9317 9.66309 17C9.66309 16.0683 9.8469 15.1457 10.204 14.2852C10.5611 13.4246 11.0844 12.643 11.7441 11.985L23.3182 0.410831C23.4503 0.278743 23.6071 0.173965 23.7797 0.10248C23.9523 0.0309947 24.1373 -0.00579834 24.3241 -0.00579834C24.5109 -0.00579834 24.6959 0.0309947 24.8684 0.10248C25.041 0.173965 25.1978 0.278743 25.3299 0.410831C25.462 0.542919 25.5668 0.69973 25.6383 0.872311C25.7098 1.04489 25.7465 1.22986 25.7465 1.41666C25.7465 1.60346 25.7098 1.78843 25.6383 1.96102C25.5668 2.1336 25.462 2.29041 25.3299 2.4225L13.7557 13.9966C12.9599 14.7935 12.5128 15.8737 12.5128 17C12.5128 18.1262 12.9599 19.2064 13.7557 20.0033L25.3299 31.5775C25.4627 31.7092 25.5681 31.8658 25.64 32.0385C25.7119 32.2111 25.749 32.3963 25.749 32.5833C25.749 32.7703 25.7119 32.9555 25.64 33.1281C25.5681 33.3007 25.4627 33.4574 25.3299 33.5891C25.1975 33.7204 25.0406 33.8243 24.8679 33.8948C24.6953 33.9653 24.5105 34.001 24.3241 34Z" fill="#374957"/>
</g>
<defs>
<clipPath id="clip0_72_384">
<rect width="34" height="34" fill="white"/>
</clipPath>
</defs>
</svg>
