<svg width="31" height="31" viewBox="0 0 31 31" fill="none" xmlns="http://www.w3.org/2000/svg">
<g clip-path="url(#clip0_117_104)">
<path d="M5.26984 10.2195C5.26984 8.86431 5.80498 7.56467 6.75755 6.60643C7.71011 5.64819 9.00207 5.10986 10.3492 5.10986H20.5079C21.8551 5.10986 23.147 5.64819 24.0996 6.60643C25.0522 7.56467 25.5873 8.86431 25.5873 10.2195V20.4387C25.5873 21.7938 25.0522 23.0935 24.0996 24.0517C23.147 25.0099 21.8551 25.5483 20.5079 25.5483H10.3492C9.00207 25.5483 7.71011 25.0099 6.75755 24.0517C5.80498 23.0935 5.26984 21.7938 5.26984 20.4387V10.2195Z" stroke="black" stroke-width="1.53288" stroke-linecap="round" stroke-linejoin="round"/>
<path d="M11.6191 15.3288C11.6191 16.3451 12.0204 17.3199 12.7349 18.0386C13.4493 18.7572 14.4183 19.161 15.4286 19.161C16.439 19.161 17.4079 18.7572 18.1223 18.0386C18.8368 17.3199 19.2381 16.3451 19.2381 15.3288C19.2381 14.3124 18.8368 13.3377 18.1223 12.619C17.4079 11.9003 16.439 11.4966 15.4286 11.4966C14.4183 11.4966 13.4493 11.9003 12.7349 12.619C12.0204 13.3377 11.6191 14.3124 11.6191 15.3288Z" stroke="black" stroke-width="1.53288" stroke-linecap="round" stroke-linejoin="round"/>
<path d="M21.1429 9.58057V9.593" stroke="black" stroke-width="1.53288" stroke-linecap="round" stroke-linejoin="round"/>
</g>
<defs>
<clipPath id="clip0_117_104">
<rect width="30.4762" height="30.6576" fill="white" transform="translate(0.190491)"/>
</clipPath>
</defs>
</svg>
