<svg width="55" height="54" viewBox="0 0 55 54" fill="none" xmlns="http://www.w3.org/2000/svg">
<g clip-path="url(#clip0_63_395)">
<path d="M9.78337 18.0005C9.78337 15.6135 10.726 13.3244 12.4038 11.6365C14.0817 9.9487 16.3573 9.00049 18.7301 9.00049H36.6236C38.9964 9.00049 41.2721 9.9487 42.9499 11.6365C44.6278 13.3244 45.5704 15.6135 45.5704 18.0005V36.0005C45.5704 38.3874 44.6278 40.6766 42.9499 42.3644C41.2721 44.0523 38.9964 45.0005 36.6236 45.0005H18.7301C16.3573 45.0005 14.0817 44.0523 12.4038 42.3644C10.726 40.6766 9.78337 38.3874 9.78337 36.0005V18.0005Z" stroke="white" stroke-width="2.7" stroke-linecap="round" stroke-linejoin="round"/>
<path d="M20.9669 27.0005C20.9669 28.7907 21.6738 30.5076 22.9322 31.7735C24.1906 33.0393 25.8973 33.7505 27.6769 33.7505C29.4565 33.7505 31.1633 33.0393 32.4216 31.7735C33.68 30.5076 34.387 28.7907 34.387 27.0005C34.387 25.2103 33.68 23.4934 32.4216 22.2275C31.1633 20.9616 29.4565 20.2505 27.6769 20.2505C25.8973 20.2505 24.1906 20.9616 22.9322 22.2275C21.6738 23.4934 20.9669 25.2103 20.9669 27.0005Z" stroke="white" stroke-width="2.7" stroke-linecap="round" stroke-linejoin="round"/>
<path d="M37.742 16.875V16.8973" stroke="white" stroke-width="2.7" stroke-linecap="round" stroke-linejoin="round"/>
</g>
<defs>
<clipPath id="clip0_63_395">
<rect width="53.6805" height="54" fill="white" transform="translate(0.836685)"/>
</clipPath>
</defs>
</svg>
