<svg width="37" height="37" viewBox="0 0 37 37" fill="none" xmlns="http://www.w3.org/2000/svg">
<g clip-path="url(#clip0_63_385)">
<path d="M18.5002 9.25C17.2805 9.25 16.0882 9.61167 15.0741 10.2893C14.06 10.9669 13.2696 11.93 12.8029 13.0568C12.3362 14.1836 12.214 15.4235 12.452 16.6197C12.6899 17.8159 13.2772 18.9147 14.1397 19.7772C15.0021 20.6396 16.1009 21.2269 17.2971 21.4648C18.4933 21.7028 19.7332 21.5807 20.86 21.1139C21.9869 20.6472 22.95 19.8568 23.6276 18.8427C24.3052 17.8286 24.6668 16.6363 24.6668 15.4167C24.6668 13.7812 24.0171 12.2126 22.8607 11.0562C21.7042 9.8997 20.1357 9.25 18.5002 9.25ZM18.5002 18.5C17.8903 18.5 17.2942 18.3192 16.7872 17.9804C16.2801 17.6416 15.8849 17.16 15.6515 16.5966C15.4182 16.0332 15.3571 15.4132 15.4761 14.8151C15.595 14.217 15.8887 13.6676 16.3199 13.2364C16.7511 12.8052 17.3005 12.5115 17.8986 12.3926C18.4967 12.2736 19.1167 12.3347 19.6801 12.568C20.2435 12.8014 20.7251 13.1966 21.0639 13.7037C21.4027 14.2107 21.5835 14.8068 21.5835 15.4167C21.5835 16.2344 21.2586 17.0187 20.6804 17.5969C20.1022 18.1751 19.3179 18.5 18.5002 18.5Z" fill="white"/>
<path d="M18.4999 37.0004C17.2017 37.007 15.9208 36.7026 14.7645 36.1125C13.6082 35.5224 12.6101 34.6638 11.8538 33.6087C5.97847 25.5042 2.99842 19.4115 2.99842 15.4988C2.99842 11.3875 4.63161 7.44467 7.5387 4.53759C10.4458 1.6305 14.3886 -0.00268555 18.4999 -0.00268555C22.6111 -0.00268555 26.554 1.6305 29.4611 4.53759C32.3682 7.44467 34.0013 11.3875 34.0013 15.4988C34.0013 19.4115 31.0213 25.5042 25.146 33.6087C24.3897 34.6638 23.3916 35.5224 22.2352 36.1125C21.0789 36.7026 19.7981 37.007 18.4999 37.0004V37.0004ZM18.4999 3.36277C15.2815 3.36645 12.196 4.64656 9.92031 6.92228C7.64459 9.19801 6.36447 12.2835 6.3608 15.5019C6.3608 18.6006 9.27917 24.331 14.5763 31.6369C15.026 32.2563 15.616 32.7605 16.2979 33.1081C16.9799 33.4557 17.7344 33.6369 18.4999 33.6369C19.2653 33.6369 20.0199 33.4557 20.7018 33.1081C21.3838 32.7605 21.9737 32.2563 22.4234 31.6369C27.7206 24.331 30.639 18.6006 30.639 15.5019C30.6353 12.2835 29.3552 9.19801 27.0795 6.92228C24.8037 4.64656 21.7182 3.36645 18.4999 3.36277V3.36277Z" fill="white"/>
</g>
<defs>
<clipPath id="clip0_63_385">
<rect width="37" height="37" fill="white"/>
</clipPath>
</defs>
</svg>
