<svg width="31" height="31" viewBox="0 0 31 31" fill="none" xmlns="http://www.w3.org/2000/svg">
<g clip-path="url(#clip0_117_97)">
<path d="M2.53967 10.2195C2.53967 8.86431 3.07482 7.56467 4.02738 6.60643C4.97995 5.64819 6.27191 5.10986 7.61904 5.10986H22.8571C24.2043 5.10986 25.4962 5.64819 26.4488 6.60643C27.4014 7.56467 27.9365 8.86431 27.9365 10.2195V20.4387C27.9365 21.7938 27.4014 23.0935 26.4488 24.0517C25.4962 25.0099 24.2043 25.5483 22.8571 25.5483H7.61904C6.27191 25.5483 4.97995 25.0099 4.02738 24.0517C3.07482 23.0935 2.53967 21.7938 2.53967 20.4387V10.2195Z" stroke="black" stroke-width="1.53288" stroke-linecap="round" stroke-linejoin="round"/>
<path d="M12.6984 11.4966L19.0476 15.3288L12.6984 19.161V11.4966Z" stroke="black" stroke-width="1.53288" stroke-linecap="round" stroke-linejoin="round"/>
</g>
<defs>
<clipPath id="clip0_117_97">
<rect width="30.4762" height="30.6576" fill="white"/>
</clipPath>
</defs>
</svg>
