<svg width="54" height="54" viewBox="0 0 54 54" fill="none" xmlns="http://www.w3.org/2000/svg">
<g clip-path="url(#clip0_63_388)">
<path d="M4.47335 18.0005C4.47335 15.6135 5.41596 13.3244 7.0938 11.6365C8.77164 9.9487 11.0473 9.00049 13.4201 9.00049H40.2603C42.6332 9.00049 44.9088 9.9487 46.5866 11.6365C48.2645 13.3244 49.2071 15.6135 49.2071 18.0005V36.0005C49.2071 38.3874 48.2645 40.6766 46.5866 42.3644C44.9088 44.0523 42.6332 45.0005 40.2603 45.0005H13.4201C11.0473 45.0005 8.77164 44.0523 7.0938 42.3644C5.41596 40.6766 4.47335 38.3874 4.47335 36.0005V18.0005Z" stroke="white" stroke-width="2.7" stroke-linecap="round" stroke-linejoin="round"/>
<path d="M22.3669 20.2505L33.5503 27.0005L22.3669 33.7505V20.2505Z" stroke="white" stroke-width="2.7" stroke-linecap="round" stroke-linejoin="round"/>
</g>
<defs>
<clipPath id="clip0_63_388">
<rect width="53.6805" height="54" fill="white"/>
</clipPath>
</defs>
</svg>
